<?xml version="1.0" encoding="UTF-8" standalone="no"?>
<svg
   xmlns:dc="http://purl.org/dc/elements/1.1/"
   xmlns:cc="http://creativecommons.org/ns#"
   xmlns:rdf="http://www.w3.org/1999/02/22-rdf-syntax-ns#"
   xmlns:svg="http://www.w3.org/2000/svg"
   xmlns="http://www.w3.org/2000/svg"
   xmlns:xlink="http://www.w3.org/1999/xlink"
   xmlns:sodipodi="http://sodipodi.sourceforge.net/DTD/sodipodi-0.dtd"
   xmlns:inkscape="http://www.inkscape.org/namespaces/inkscape"
   inkscape:export-ydpi="90"
   inkscape:export-xdpi="90"
   inkscape:export-filename="/home/diau/svn/playground-plasma/desktoptheme/air/widgets/background.png"
   version="1.0"
   inkscape:output_extension="org.inkscape.output.svg.inkscape"
   sodipodi:docname="decoration.svg"
   inkscape:version="1.0.1 (3bc2e813f5, 2020-09-07)"
   sodipodi:version="0.32"
   id="svg3642"
   height="310"
   width="355">
  <sodipodi:namedview
     inkscape:document-rotation="0"
     inkscape:snap-nodes="true"
     inkscape:object-paths="true"
     inkscape:snap-intersection-paths="true"
     inkscape:snap-smooth-nodes="true"
     inkscape:snap-midpoints="true"
     inkscape:snap-bbox-edge-midpoints="true"
     inkscape:bbox-paths="true"
     inkscape:bbox-nodes="true"
     inkscape:snap-bbox="true"
     inkscape:snap-global="true"
     inkscape:window-maximized="1"
     gridtolerance="13"
     objecttolerance="9"
     inkscape:guide-bbox="true"
     showguides="true"
     height="48px"
     width="48px"
     inkscape:window-y="0"
     inkscape:window-x="0"
     inkscape:window-height="975"
     inkscape:window-width="1920"
     inkscape:document-units="px"
     inkscape:grid-bbox="true"
     showgrid="false"
     inkscape:current-layer="layer1"
     inkscape:cy="148.97492"
     inkscape:cx="440.45409"
     inkscape:zoom="2.8284271"
     inkscape:pageshadow="2"
     inkscape:pageopacity="1"
     borderopacity="1.0"
     bordercolor="#666666"
     pagecolor="#585858"
     id="base"
     inkscape:snap-others="false"
     inkscape:snap-bbox-midpoints="true">
    <inkscape:grid
       empopacity="0.25098039"
       empcolor="#6decff"
       opacity="0.1254902"
       color="#8f8fff"
       snapvisiblegridlinesonly="true"
       empspacing="5"
       visible="true"
       enabled="true"
       id="grid2555"
       type="xygrid" />
    <sodipodi:guide
       position="110,106"
       orientation="0,-1"
       id="guide1058" />
  </sodipodi:namedview>
  <defs
     id="defs3644">
    <linearGradient
       id="shadow_active">
      <stop
         style="stop-color:#000000;stop-opacity:0.92168677;"
         offset="0"
         id="stop7028" />
      <stop
         style="stop-color:#000000;stop-opacity:0.74096388;"
         offset="0.125"
         id="stop7026" />
      <stop
         style="stop-color:#000000;stop-opacity:0.60240966;"
         offset="0.25"
         id="stop6834" />
      <stop
         style="stop-color:#000000;stop-opacity:0.33132529;"
         offset="0.5"
         id="stop6832" />
      <stop
         id="stop6836"
         offset="0.75"
         style="stop-color:#000000;stop-opacity:0.10843374;" />
      <stop
         style="stop-color:#000000;stop-opacity:0.03921569;"
         offset="0.875"
         id="stop6894" />
      <stop
         style="stop-color:#000000;stop-opacity:0;"
         offset="1"
         id="stop6721" />
    </linearGradient>
    <linearGradient
       y2="221.16278"
       x2="398"
       y1="138.13953"
       x1="398"
       gradientTransform="matrix(1,0,0,1.0117647,0,137.2353)"
       gradientUnits="userSpaceOnUse"
       id="linearGradient5688"
       xlink:href="#shadow_active"
       inkscape:collect="always" />
    <linearGradient
       y2="14.583314"
       x2="396"
       y1="64.166748"
       x1="396"
       gradientTransform="matrix(1,0,0,1.0285694,-215,50.00005)"
       gradientUnits="userSpaceOnUse"
       id="linearGradient6612"
       xlink:href="#shadow_active"
       inkscape:collect="always" />
    <linearGradient
       y2="171.74419"
       x2="398"
       y1="138.13954"
       x1="398"
       gradientTransform="matrix(1,0,0,1.0117647,0,137.15731)"
       gradientUnits="userSpaceOnUse"
       id="linearGradient5688-2"
       xlink:href="#shadow_inactive"
       inkscape:collect="always" />
    <linearGradient
       id="shadow_inactive">
      <stop
         id="stop6719-25"
         offset="0"
         style="stop-color:#000000;stop-opacity:1;" />
      <stop
         style="stop-color:#000000;stop-opacity:0.63855422;"
         offset="0.25"
         id="stop6834-1" />
      <stop
         style="stop-color:#000000;stop-opacity:0.33734939;"
         offset="0.5"
         id="stop6832-0" />
      <stop
         id="stop6836-0"
         offset="0.75"
         style="stop-color:#000000;stop-opacity:0.10843374;" />
      <stop
         style="stop-color:#000000;stop-opacity:0.03921569;"
         offset="0.875"
         id="stop6894-7" />
      <stop
         style="stop-color:#000000;stop-opacity:0;"
         offset="1"
         id="stop6721-4" />
    </linearGradient>
    <linearGradient
       y2="30"
       x2="396"
       y1="66"
       x1="396"
       gradientTransform="translate(200,5)"
       gradientUnits="userSpaceOnUse"
       id="linearGradient6612-5"
       xlink:href="#shadow_inactive"
       inkscape:collect="always" />
    <linearGradient
       y2="99"
       x2="279.41449"
       y1="99"
       x1="348.49344"
       gradientTransform="matrix(1.0133333,0,0,1,-3.2650058,140)"
       gradientUnits="userSpaceOnUse"
       id="linearGradient1126"
       xlink:href="#shadow_active"
       inkscape:collect="always" />
    <radialGradient
       r="17.5"
       fy="80.416679"
       fx="296.47726"
       cy="80.416679"
       cx="296.47726"
       gradientTransform="matrix(9.4919759e-7,-2.9142759,4.0000007,1.1504403e-6,-211.66707,974.01628)"
       gradientUnits="userSpaceOnUse"
       id="radialGradient1306"
       xlink:href="#shadow_active"
       inkscape:collect="always" />
    <linearGradient
       y2="99.01548"
       x2="304.08554"
       y1="99.01548"
       x1="348.49344"
       gradientTransform="matrix(1.0133333,0,0,1,-3.2650058,140)"
       gradientUnits="userSpaceOnUse"
       id="linearGradient1389"
       xlink:href="#shadow_inactive"
       inkscape:collect="always" />
    <radialGradient
       r="17.5"
       fy="178.72313"
       fx="48.27084"
       cy="178.72313"
       cx="48.27084"
       gradientTransform="matrix(-4.0000019,3.2964356e-6,1.0208917e-6,-4.7999994,303.08329,1053.8707)"
       gradientUnits="userSpaceOnUse"
       id="radialGradient965"
       xlink:href="#shadow_active"
       inkscape:collect="always" />
    <radialGradient
       r="17.5"
       fy="181.17691"
       fx="48.270844"
       cy="181.17691"
       cx="48.270844"
       gradientTransform="matrix(-2.5714291,8.7200349e-7,-2.0148289e-7,-1.9428565,594.12508,548.0007)"
       gradientUnits="userSpaceOnUse"
       id="radialGradient967"
       xlink:href="#shadow_inactive"
       inkscape:collect="always" />
    <radialGradient
       r="17.5"
       fy="80.416672"
       fx="296.45123"
       cy="80.416672"
       cx="296.45123"
       gradientTransform="matrix(-3.7607938e-7,-2.0571166,2.5714318,-5.1233137e-7,263.21413,725.83432)"
       gradientUnits="userSpaceOnUse"
       id="radialGradient969"
       xlink:href="#shadow_inactive"
       inkscape:collect="always" />
    <linearGradient
       y2="99"
       x2="279.41449"
       y1="99"
       x1="348.49344"
       gradientTransform="matrix(1.0133333,0,0,1,-3.2650058,140)"
       gradientUnits="userSpaceOnUse"
       id="linearGradient968"
       xlink:href="#shadow_active"
       inkscape:collect="always" />
    <linearGradient
       y2="99.01548"
       x2="304.08554"
       y1="99.01548"
       x1="348.49344"
       gradientTransform="matrix(1.0133333,0,0,1,-3.2650058,140)"
       gradientUnits="userSpaceOnUse"
       id="linearGradient1012"
       xlink:href="#shadow_inactive"
       inkscape:collect="always" />
    <linearGradient
       id="linearGradient2643-6">
      <stop
         id="stop2639-7"
         offset="0"
         style="stop-opacity:.353" />
      <stop
         id="stop2655-5"
         offset=".45"
         style="stop-opacity:.137" />
      <stop
         id="stop2641-3"
         offset="1"
         style="stop-opacity:0" />
    </linearGradient>
    <radialGradient
       id="radialGradient1562"
       cx="54.701565"
       cy="24.514"
       r="3"
       fx="54.701565"
       fy="24.514"
       gradientTransform="matrix(-4.1595182e-8,-1.999999,6.1904971,-1.1695948e-7,-62.177578,941.76524)"
       gradientUnits="userSpaceOnUse"
       xlink:href="#linearGradient882" />
    <linearGradient
       id="linearGradient882">
      <stop
         style="stop-opacity:.353"
         offset="0"
         id="stop876" />
      <stop
         style="stop-opacity:.137"
         offset="0.50000066"
         id="stop878" />
      <stop
         style="stop-opacity:0"
         offset="1"
         id="stop880" />
    </linearGradient>
    <radialGradient
       id="radialGradient1987"
       cx="52.084"
       cy="51.595001"
       r="3"
       fx="52.084"
       fy="51.595001"
       gradientTransform="matrix(-6.1904772,1.5994408e-6,-1.2303386e-6,-4.7619033,421.99567,1202.7678)"
       gradientUnits="userSpaceOnUse"
       xlink:href="#linearGradient2643-6" />
    <radialGradient
       inkscape:collect="always"
       xlink:href="#shadow_active"
       id="radialGradient1087"
       gradientUnits="userSpaceOnUse"
       gradientTransform="matrix(-4.0000019,3.2964356e-6,1.0208917e-6,-4.7999994,192.85137,1143.8707)"
       cx="48.27084"
       cy="178.72313"
       fx="48.27084"
       fy="178.72313"
       r="17.5" />
  </defs>
  <metadata
     id="metadata3647">
    <rdf:RDF>
      <cc:Work
         rdf:about="">
        <dc:format>image/svg+xml</dc:format>
        <dc:type
           rdf:resource="http://purl.org/dc/dcmitype/StillImage" />
        <dc:title />
      </cc:Work>
      <cc:Work
         rdf:about="">
        <dc:format>image/svg+xml</dc:format>
        <dc:type
           rdf:resource="http://purl.org/dc/dcmitype/StillImage" />
      </cc:Work>
    </rdf:RDF>
  </metadata>
  <g
     transform="translate(0,-90)"
     inkscape:groupmode="layer"
     inkscape:label="Layer 1"
     id="layer1">
    <g
       transform="translate(140,-31.063)"
       inkscape:label="#decoration-inactive-topleft"
       id="decoration-inactive-topleft">
      <path
         d="m 365,50 v 66 h 76 V 98 c 0,-6.648 5.352,-12 12,-12 h 17 V 50 Z"
         style="opacity:0.2;fill:url(#radialGradient969);fill-opacity:1;stroke:none"
         id="rect6520-3-2-6"
         transform="translate(-140,115.063)" />
      <g
         id="6utrh-9"
         inkscape:label="#g5343">
        <g
           transform="translate(0,1)"
           inkscape:label="#g5253"
           id="decoration-toplefthaerty-5">
          <g
             id="49093u-9"
             transform="translate(-19,25)"
             inkscape:label="#g6458">
            <path
               id="rect5073-4-9-6"
               style="opacity:0.1;fill:#ffffff;fill-opacity:1;stroke:none;stroke-width:1"
               d="M 447 80 C 443.26099 80 441 82.38863 441 86 L 441 92 L 441 108 L 441 109.93555 L 441 110 L 470 110 L 470 108 L 470 82 L 470 81 L 470 80 L 468 80 L 453 80 L 447 80 z "
               transform="translate(-121,95.063)" />
          </g>
        </g>
      </g>
      <path
         id="path202"
         style="opacity:0.4;fill:#ffffff;fill-opacity:1;stroke:none"
         d="M 446 79 C 442.676 79 440 81.676 440 85 L 440 108 L 440 110 L 441 110 L 441 109 L 441 86 C 441 82.60616 443.00268 80 447 80 L 447.98633 80 L 469 80 L 470 80 L 470 79 L 468 79 L 453 79 L 446 79 z "
         transform="translate(-140,121.063)" />
    </g>
    <g
       id="decoration-right"
       transform="matrix(-1,0,0,1,604.875,3)"
       inkscape:label="#decoration-left">
      <path
         style="opacity:0.2;fill:url(#linearGradient968);fill-opacity:1;stroke:none;stroke-width:1.00664"
         d="m 244.875,197 v 86 h 76 v -86 z"
         id="path960"
         inkscape:connector-curvature="0"
         sodipodi:nodetypes="ccccc" />
      <path
         transform="matrix(-1,0,0,1,604.875,81)"
         d="m 284,116 v 86 h 1 v -86 z"
         style="opacity:0.4;fill:#ffffff;fill-opacity:1;stroke:none"
         id="path962" />
      <path
         style="opacity:0.1;fill:#ffffff;fill-opacity:1;stroke:none"
         d="m 576,121 v 86 h 29 v -86 z"
         id="path964"
         inkscape:connector-curvature="0"
         sodipodi:nodetypes="ccccc"
         transform="translate(-255.125,76)" />
    </g>
    <g
       id="g4418"
       style="display:none"
       inkscape:label="layer1"
       transform="translate(-1453.4451,-465.21909)" />
    <g
       id="layer2"
       style="display:inline"
       inkscape:label="glow"
       transform="translate(-1453.4451,-465.21909)" />
    <g
       transform="translate(975.61592,-1945.0985)"
       id="g2424"
       style="display:none"
       inkscape:label="layer1" />
    <g
       transform="translate(975.61592,-1945.0985)"
       id="g2426"
       style="display:inline"
       inkscape:label="glow" />
    <g
       transform="translate(1021.5937,-976.23581)"
       id="g3429"
       inkscape:label="Layer 1" />
    <g
       transform="translate(2807.8842,-592.77773)"
       id="g19758"
       inkscape:label="Layer 1" />
    <g
       transform="translate(3912.7094,-1471.0471)"
       id="g3935"
       inkscape:label="Layer 1" />
    <g
       transform="translate(1514.8397,-1486.3943)"
       id="g8459"
       inkscape:label="Layer 1" />
    <g
       transform="translate(164.02222,-157.78265)"
       id="g28391"
       inkscape:label="Layer 1" />
    <g
       transform="translate(1268.8474,-1036.052)"
       id="g28393"
       inkscape:label="Layer 1" />
    <g
       transform="translate(-1129.0223,-1051.3992)"
       id="g28395"
       inkscape:label="Layer 1" />
    <g
       transform="translate(2310.5222,-165.78265)"
       id="g6598"
       inkscape:label="Layer 1" />
    <g
       transform="translate(3415.3474,-1044.052)"
       id="g6640"
       inkscape:label="Layer 1" />
    <g
       transform="translate(1017.4777,-1059.3992)"
       id="g6716"
       inkscape:label="Layer 1" />
    <g
       style="opacity:0.45945943"
       transform="matrix(1,0,0,-1,-153.44508,295.17435)"
       id="g6850" />
    <g
       transform="translate(-1919.565,-153.36219)"
       inkscape:label="layer1"
       style="display:none"
       id="g4240" />
    <g
       transform="translate(-1919.565,-153.36219)"
       inkscape:label="glow"
       style="display:inline"
       id="g4242" />
    <g
       inkscape:label="layer1"
       style="display:none"
       id="g4244"
       transform="translate(509.49601,-1633.2416)" />
    <g
       inkscape:label="glow"
       style="display:inline"
       id="g4246"
       transform="translate(509.49601,-1633.2416)" />
    <g
       inkscape:label="Layer 1"
       id="g4248"
       transform="translate(555.47381,-664.37887)" />
    <g
       inkscape:label="Layer 1"
       id="g4250"
       transform="translate(2341.7643,-280.92083)" />
    <g
       inkscape:label="Layer 1"
       id="g4252"
       transform="translate(3446.5895,-1159.1902)" />
    <g
       inkscape:label="Layer 1"
       id="g4254"
       transform="translate(1048.7198,-1174.5374)" />
    <g
       inkscape:label="Layer 1"
       id="g4256"
       transform="translate(-302.09768,154.07425)" />
    <g
       inkscape:label="Layer 1"
       id="g4258"
       transform="translate(802.72751,-724.19507)" />
    <g
       inkscape:label="Layer 1"
       id="g4260"
       transform="translate(-1595.1422,-739.54227)" />
    <g
       inkscape:label="Layer 1"
       id="g4262"
       transform="translate(1844.4023,146.07425)" />
    <g
       inkscape:label="Layer 1"
       id="g4264"
       transform="translate(2949.2275,-732.19507)" />
    <g
       inkscape:label="Layer 1"
       id="g4266"
       transform="translate(551.35781,-747.54227)" />
    <g
       id="g4268"
       transform="matrix(1,0,0,-1,-619.56498,607.03125)"
       style="opacity:0.45945943" />
    <g
       inkscape:label="#decoration-bottom"
       transform="translate(-215,9)"
       id="decoration-bottom">
      <path
         sodipodi:nodetypes="ccccc"
         inkscape:connector-curvature="0"
         id="path6217-8"
         d="m 325,289 v 86 h 145 v -86 z"
         style="opacity:0.2;fill:url(#linearGradient5688);fill-opacity:1;stroke:none;stroke-width:1.0058651" />
      <path
         inkscape:connector-curvature="0"
         style="opacity:0.4;fill:#ffffff;fill-opacity:1;stroke:none;stroke-width:0.413845"
         d="M 470,289 H 325 v 1 h 145 z"
         id="path6214-7" />
      <path
         inkscape:connector-curvature="0"
         style="opacity:1;fill:#dcf0fa;fill-opacity:1;stroke:none;stroke-width:1.15468"
         d="M 470,277 H 325 v 8 h 145 z"
         id="path6211-7" />
      <path
         inkscape:connector-curvature="0"
         style="opacity:0.1;fill:#ffffff;fill-opacity:1;stroke:none;stroke-width:0.816495"
         d="M 470,285 H 325 v 4 h 145 z"
         id="path1119" />
    </g>
    <path
       inkscape:label="#decoration-center"
       inkscape:connector-curvature="0"
       id="decoration-center"
       d="m 110,200 v 86 h 145 v -86 z"
       style="opacity:0.1;fill:#ffffff;fill-opacity:1;stroke:none" />
    <g
       inkscape:label="#decoration-top"
       transform="translate(-215,-5.99995)"
       id="decoration-top">
      <path
         d="M 110,50 V 86 H 255 V 50 Z"
         style="opacity:0.2;fill:url(#linearGradient6612);fill-opacity:1;stroke:none;stroke-width:1.01418"
         id="path6055-5"
         transform="translate(215,89.99995)" />
      <path
         transform="translate(215,89.99995)"
         d="m 110,85 v 1 h 145 v -1 z"
         style="opacity:0.4;fill:#ffffff;fill-opacity:1;stroke:none"
         id="path6098-4" />
      <path
         sodipodi:nodetypes="ccccc"
         inkscape:connector-curvature="0"
         id="path6092-3"
         d="m 325,175.99994 v 30.00002 h 145 v -30.00002 z"
         style="opacity:0.1;fill:#ffffff;fill-opacity:1;stroke:none;stroke-width:1" />
    </g>
    <g
       inkscape:label="#decoration-left"
       transform="translate(-239.875,3)"
       id="decoration-left">
      <path
         sodipodi:nodetypes="ccccc"
         inkscape:connector-curvature="0"
         id="path6345-1"
         d="m 244.875,197 v 86 h 76 v -86 z"
         style="opacity:0.2;fill:url(#linearGradient1126);fill-opacity:1;stroke:none;stroke-width:1.00664" />
      <path
         transform="translate(239.875,81)"
         d="m 80,116 v 86 h 1 v -86 z"
         style="opacity:0.4;fill:#ffffff;fill-opacity:1;stroke:none"
         id="path6342-6" />
      <path
         transform="translate(-255.125,76)"
         sodipodi:nodetypes="ccccc"
         inkscape:connector-curvature="0"
         id="path6339-9"
         d="m 576,121 v 86 h 29 v -86 z"
         style="opacity:0.1;fill:#ffffff;fill-opacity:1;stroke:none" />
    </g>
    <g
       inkscape:label="#decoration-inactive-bottom"
       transform="translate(145,9.07798)"
       id="decoration-inactive-bottom">
      <path
         sodipodi:nodetypes="ccccc"
         inkscape:connector-curvature="0"
         id="path6217-8-2"
         d="m 325,288.92202 v 86 h 145 v -86 z"
         style="opacity:0.2;fill:url(#linearGradient5688-2);fill-opacity:1;stroke:none;stroke-width:1.0058651" />
      <path
         inkscape:connector-curvature="0"
         style="opacity:0.4;fill:#ffffff;fill-opacity:1;stroke:none;stroke-width:0.39242497"
         d="M 470,288.92202 H 325 v 1 h 145 z"
         id="path6214-7-4" />
      <path
         inkscape:connector-curvature="0"
         style="opacity:1;fill:#dcf0fa;fill-opacity:1;stroke:none;stroke-width:1.1547"
         d="M 470,276.92202 H 325 v 8 h 145 z"
         id="path6211-7-5" />
      <path
         inkscape:connector-curvature="0"
         style="opacity:0.1;fill:#ffffff;fill-opacity:1;stroke:none;stroke-width:0.816492"
         d="M 470,284.92202 H 325 v 4 h 145 z"
         id="path1209" />
    </g>
    <path
       inkscape:label="#decoration-inactive-center"
       inkscape:connector-curvature="0"
       id="decoration-inactive-center"
       d="m 470,200 v 86 h 145 v -86 z"
       style="opacity:0.1;fill:#ffffff;fill-opacity:1;stroke:none" />
    <g
       inkscape:label="#decoration-inactive-top"
       transform="translate(145,-6)"
       id="decoration-inactive-top">
      <path
         sodipodi:nodetypes="ccccc"
         inkscape:connector-curvature="0"
         id="path6055-5-5"
         d="M 525,5 V 41 H 670 V 5 Z"
         style="opacity:0.2;fill:url(#linearGradient6612-5);fill-opacity:1;stroke:none"
         transform="translate(-200,135)" />
      <path
         id="path6098-4-8"
         style="opacity:0.4;fill:#ffffff;fill-opacity:1;stroke:none"
         d="m 470,85 v 1 h 145 v -1 z"
         transform="translate(-145,90)" />
      <path
         sodipodi:nodetypes="ccccc"
         inkscape:connector-curvature="0"
         id="path6092-3-3"
         d="m 325,176 v 30 h 145 v -30 z"
         style="opacity:0.1;fill:#ffffff;fill-opacity:1;stroke:none;stroke-width:1" />
    </g>
    <g
       inkscape:label="#decoration-inactive-left"
       transform="translate(120.125,2.98452)"
       id="decoration-inactive-left">
      <path
         sodipodi:nodetypes="ccccc"
         inkscape:connector-curvature="0"
         id="path6345-1-1"
         d="m 244.875,197.01548 v 86 l 76,-0.0155 v -85.98452 z"
         style="opacity:0.2;fill:url(#linearGradient1389);fill-opacity:1;stroke:none;stroke-width:1.00664" />
      <path
         inkscape:connector-curvature="0"
         style="opacity:0.4;fill:#ffffff;fill-opacity:1;stroke:none;stroke-width:0.447214"
         d="m 319.875,197.01548 v 86 h 1 v -86 z"
         id="path6342-6-6" />
      <path
         sodipodi:nodetypes="ccccc"
         id="path6339-9-9"
         d="m 320.875,197.01548 v 86 h 29 v -86 z"
         style="opacity:0.1;fill:#ffffff;fill-opacity:1;stroke:none"
         inkscape:connector-curvature="0" />
    </g>
    <g
       inkscape:label="#decoration-bottomleft"
       id="decoration-bottomleft"
       transform="translate(-385,-4.000015)">
      <path
         id="rect7023-1"
         style="opacity:1;fill:#dcf0fa;fill-opacity:1;stroke:none;stroke-width:1.00001"
         d="m 470,290.00002 v 1.55469 c 0,4.46737 2.10975,6.44531 7,6.44531 h 5 13 v -8 z" />
      <g
         id="hrh-6"
         inkscape:label="#g5246"
         transform="matrix(1,0,0,0.99932111,165,-10.666582)">
        <path
           id="rect5099-9-5"
           style="opacity:0.2;fill:url(#radialGradient965);fill-opacity:1;stroke:none"
           d="M 5 196 L 5 294 L 110 294 L 110 208 L 93 208 L 88 208 C 84.122 208 81 205.43269 81 201.55469 L 81 201 L 81 196 L 5 196 z "
           transform="matrix(1,0,0,1.0006794,220,104.7377)" />
        <g
           inkscape:label="#g6297"
           transform="translate(-20,24)"
           id="decoration-bottomleft57547-54-5">
          <g
             id="g6659-3-3-0" />
        </g>
        <path
           id="path1149"
           style="opacity:0.4;fill:#ffffff;fill-opacity:1;stroke:none"
           d="M 80 196 L 80 202.08398 C 80 205.92148 83.258764 209 87.257812 209 L 93 209 L 110 209 L 110 208.5 L 110 208 L 93 208 L 88.791016 208 L 88 208 L 87.785156 208 C 87.64449 208 87.500951 207.98769 87.357422 207.97461 C 87.324917 207.97217 87.292138 207.9696 87.259766 207.9668 C 87.224691 207.9629 87.189494 207.95972 87.154297 207.95508 C 83.679136 207.6094 81 205.14552 81 201.55469 L 81 201.42773 L 81 200 L 81 197 L 81 196 L 80 196 z "
           transform="matrix(1,0,0,1.0006794,220,104.7377)" />
      </g>
      <path
         id="path1109"
         style="opacity:0.1;fill:#ffffff;fill-opacity:1;stroke:none;stroke-width:1.00001"
         d="M 81 196 L 81 201.55469 C 81 205.43268 84.122 208 88 208 L 93 208 L 110 208 L 110 207 L 110 204 L 97 204 L 92 204 C 87.10975 204 85 202.02206 85 197.55469 L 85 196 L 82 196 L 81 196 z "
         transform="translate(385,94.000015)" />
    </g>
    <g
       id="decoration-inactive-bottomleft">
      <path
         id="path4207"
         style="opacity:0.1;fill:#ffffff;fill-opacity:1;stroke:none;stroke-width:1.41421"
         d="M 441 196 L 441 201.55469 C 441 205.43269 444.122 208 448 208 L 453 208 L 467 208 L 470 208 L 470 207 L 470 204 L 457 204 L 452 204 C 447.10975 204 445 202.02206 445 197.55469 L 445 196 L 442 196 L 441 196 z "
         transform="translate(0,90)" />
      <g
         id="hrh-3"
         inkscape:label="#g5246"
         transform="matrix(1,0,0,0.99932111,140,-14.604092)">
        <path
           id="rect5099-9-6"
           style="opacity:0.2;fill:url(#radialGradient967);fill-opacity:1;stroke:none"
           d="M 365 196 L 365 294 L 470 294 L 470 208 L 467 208 L 453 208 L 448 208 C 444.122 208 441 205.43269 441 201.55469 L 441 196 L 365 196 z "
           transform="matrix(1,0,0,1.0006794,-140,104.67515)" />
        <g
           inkscape:label="#g6297"
           transform="translate(-20,24)"
           id="decoration-bottomleft57547-54-2">
          <g
             id="g6659-3-3-4" />
        </g>
        <path
           id="path1060"
           style="opacity:0.4;fill:#ffffff;fill-opacity:1;stroke:none"
           d="M 440 196 L 440 202.08398 C 440 205.92148 443.25876 209 447.25781 209 L 453 209 L 467 209 L 470 209 L 470 208.5 L 470 208 L 467 208 L 453 208 L 448 208 C 447.99538 208 447.99094 208.00001 447.98633 208 L 447.78516 208 C 447.64449 208 447.50095 207.98771 447.35742 207.97461 C 447.35027 207.97417 447.34311 207.97317 447.33594 207.97266 C 447.31056 207.97069 447.28506 207.96899 447.25977 207.9668 C 447.22467 207.9628 447.18947 207.95978 447.1543 207.95508 C 447.14566 207.95422 447.13753 207.95206 447.12891 207.95117 C 446.87567 207.92519 446.62677 207.88799 446.38281 207.83984 C 446.36242 207.83582 446.34258 207.83035 446.32227 207.82617 C 446.09352 207.77916 445.86956 207.72216 445.65039 207.65625 C 445.61774 207.64642 445.58516 207.63719 445.55273 207.62695 C 445.33222 207.55738 445.11745 207.47883 444.9082 207.39062 C 444.89449 207.38484 444.88084 207.37891 444.86719 207.37305 C 444.65306 207.28121 444.44494 207.1791 444.24414 207.06836 C 444.22761 207.05924 444.20979 207.05222 444.19336 207.04297 C 443.54733 206.67973 442.97688 206.22017 442.50195 205.67578 C 442.50161 205.67539 442.50229 205.67422 442.50195 205.67383 C 442.35156 205.50136 442.21219 205.31987 442.08203 205.13086 C 442.0744 205.1198 442.0642 205.11073 442.05664 205.09961 C 442.04617 205.0842 442.03377 205.07021 442.02344 205.05469 C 442.02063 205.05026 442.01843 205.04545 442.01562 205.04102 C 442.00567 205.02526 441.9981 205.00804 441.98828 204.99219 C 441.36339 204.028 441 202.86876 441 201.55469 L 441 201.42773 L 441 200 L 441 197 L 441 196 L 440 196 z "
           transform="matrix(1,0,0,1.0006794,-140,104.67515)" />
      </g>
      <path
         id="path1177"
         style="opacity:1;fill:#dcf0fa;fill-opacity:1;stroke:none;stroke-width:1.41421"
         d="M 445 196 L 445 197.55469 C 445 202.02206 447.10975 204 452 204 L 457 204 L 470 204 L 470 196 L 445 196 z "
         transform="translate(0,90)" />
    </g>
    <rect
       y="134.00005"
       x="174"
       height="35.999897"
       width="4"
       id="shadow-hint-top-margin"
       style="opacity:1;fill:#ff00ff;fill-opacity:1;stroke:none;stroke-width:0.447214" />
    <rect
       y="298.00003"
       x="175"
       height="85.999969"
       width="4"
       id="shadow-hint-bottom-margin"
       style="opacity:1;fill:#ff00ff;fill-opacity:1;stroke:none;stroke-width:1.18321598" />
    <rect
       y="230"
       x="284"
       height="4"
       width="76"
       id="shadow-hint-right-margin"
       style="opacity:1;fill:#ff00ff;fill-opacity:1;stroke:none;stroke-width:0.707107" />
    <rect
       y="224"
       x="5"
       height="4"
       width="76"
       id="shadow-hint-left-margin"
       style="opacity:1;fill:#ff00ff;fill-opacity:1;stroke:none;stroke-width:0.707107" />
    <rect
       style="fill:#00ff29;fill-opacity:1;stroke:none;stroke-width:1.08465"
       y="134"
       x="186"
       height="66"
       width="4"
       id="hint-top-margin" />
    <rect
       style="fill:#00ff29;fill-opacity:1;stroke:none;stroke-width:1.11946"
       y="286"
       x="187"
       height="97.999992"
       width="4"
       id="hint-bottom-margin" />
    <rect
       style="fill:#00ff29;fill-opacity:1;stroke:none;stroke-width:1.08465"
       transform="rotate(90)"
       y="-360"
       x="219"
       height="105"
       width="4"
       id="hint-right-margin" />
    <rect
       style="fill:#00ff29;fill-opacity:1;stroke:none;stroke-width:1.0853"
       transform="rotate(90)"
       y="-110"
       x="216"
       height="105"
       width="4"
       id="hint-left-margin" />
    <g
       id="decoration-topleft"
       inkscape:label="#decoration-topleft"
       transform="matrix(-1,0,0,1,535,-31.0625)">
      <path
         id="path1019"
         style="opacity:0.2;fill:url(#radialGradient1306);fill-opacity:1;stroke:none"
         d="M 5 44 L 5 110 L 81 110 L 81 108 L 81 92 L 81 86 C 81 82.38863 83.26099 80 87 80 L 93 80 L 108 80 L 110 80 L 110 44 L 5 44 z "
         transform="matrix(-1,0,0,1,535,121.0625)" />
      <g
         inkscape:label="#g6067"
         id="g1027"
         transform="translate(250)">
        <g
           transform="matrix(-1,0,0,1,524,26)"
           id="g1025"
           inkscape:label="#g6458-7">
          <path
             id="path1023"
             style="opacity:0.1;fill:#ffffff;fill-opacity:1;stroke:none;stroke-width:1"
             d="m 326,175.0625 c -3.73901,0 -6,2.38863 -6,6 v 22.00001 2 h 1 1 27 v -2 -26.00001 -1 -1 h -2 z"
             sodipodi:nodetypes="ssccccccccccs" />
          <path
             id="path1005"
             style="opacity:0.4;fill:#ffffff;fill-opacity:1;stroke:none;stroke-width:1"
             d="m 86,79 c -3.324,0 -6,2.676 -6,6 v 23 2 h 1 v -1 -23 c 0,-3.393836 2.002676,-6 6,-6 h 22 1 v -1 h -2 z"
             transform="translate(239,95.0625)"
             sodipodi:nodetypes="ssccccssccccs" />
        </g>
      </g>
    </g>
    <g
       id="decoration-inactive-right"
       transform="matrix(-1,0,0,1,964.875,2.98452)"
       inkscape:label="#decoration-inactive-left">
      <path
         style="opacity:0.2;fill:url(#linearGradient1012);fill-opacity:1;stroke:none;stroke-width:1.00664"
         d="m 244.875,197.01548 v 86 l 76,-0.0155 v -85.98452 z"
         id="path1004"
         inkscape:connector-curvature="0"
         sodipodi:nodetypes="ccccc" />
      <path
         id="path1006"
         d="m 319.875,197.01548 v 86 h 1 v -86 z"
         style="opacity:0.4;fill:#ffffff;fill-opacity:1;stroke:none;stroke-width:0.447214"
         inkscape:connector-curvature="0" />
      <path
         sodipodi:nodetypes="ccccc"
         inkscape:connector-curvature="0"
         style="opacity:0.1;fill:#ffffff;fill-opacity:1;stroke:none"
         d="m 320.875,197.01548 v 86 h 29 v -86 z"
         id="path1008" />
    </g>
    <use
       height="100%"
       width="100%"
       transform="matrix(-1,0,0,1,365,0)"
       id="decoration-topright"
       xlink:href="#decoration-topleft"
       y="0"
       x="0" />
    <use
       height="100%"
       width="100%"
       transform="matrix(-1,0,0,1,1085,0)"
       id="decoration-inactive-topright"
       xlink:href="#decoration-inactive-topleft"
       y="0"
       x="0" />
    <use
       height="100%"
       width="100%"
       transform="matrix(-1,0,0,1,365,0)"
       id="decoration-bottomright"
       xlink:href="#decoration-bottomleft"
       y="0"
       x="0" />
    <use
       height="100%"
       width="100%"
       transform="matrix(-1,0,0,1,1085,0)"
       id="decoration-inactive-bottomright"
       xlink:href="#decoration-inactive-bottomleft"
       y="0"
       x="0" />
    <g
       inkscape:label="#g6297"
       transform="matrix(1,0,0,0.99932111,100.56013,128.90345)"
       id="g1013">
      <g
         id="g1011" />
    </g>
    <g
       inkscape:label="#g6297"
       transform="matrix(1,0,0,0.99932111,-350.23192,9.3171096)"
       id="g1079">
      <g
         id="g1077" />
    </g>
    <g
       id="g1127">
      <path
         id="path1073"
         style="fill:#fefefe;fill-opacity:1;stroke:none;stroke-width:1.00001"
         d="m -29.23192,286 v 5.55543 c 0,3.87799 3.122,6.44457 7,6.44457 h 5 17 v -12 z"
         sodipodi:nodetypes="csscccc" />
      <path
         id="path1075"
         style="opacity:0.2;fill:url(#radialGradient1087);fill-opacity:1;stroke:none"
         d="m -105.23192,286 v 98 h 105 v -86 h -17 -5 c -3.878,0 -7,-2.56731 -7,-6.44531 V 291 286 Z" />
      <path
         id="path1081"
         style="opacity:0.4;fill:#ffffff;fill-opacity:1;stroke:none"
         d="m -30.23192,286 v 6.08398 c 0,3.8375 3.258764,6.91602 7.257812,6.91602 h 5.742188 17 v -0.5 -0.5 h -1 -16 -1 -3.209946 -1.005009 c -4.26706,0 -6.785045,-3.05777 -6.785045,-6.5715 V 290 v -3 -1 z"
         sodipodi:nodetypes="cssccccccccsscccc" />
    </g>
    <g
       inkscape:label="#g6297"
       transform="matrix(1,0,0,0.99932111,124.36225,129.63548)"
       id="g1135">
      <g
         id="g1133" />
    </g>
    <g
       inkscape:label="#g6297"
       transform="matrix(1,0,0,0.99932111,75.51532,146.54957)"
       id="g1067">
      <g
         id="g1065" />
    </g>
  </g>
</svg>
