<?xml version="1.0" encoding="UTF-8" standalone="no"?>
<svg
   xmlns:dc="http://purl.org/dc/elements/1.1/"
   xmlns:cc="http://creativecommons.org/ns#"
   xmlns:rdf="http://www.w3.org/1999/02/22-rdf-syntax-ns#"
   xmlns:svg="http://www.w3.org/2000/svg"
   xmlns="http://www.w3.org/2000/svg"
   xmlns:sodipodi="http://sodipodi.sourceforge.net/DTD/sodipodi-0.dtd"
   xmlns:inkscape="http://www.inkscape.org/namespaces/inkscape"
   inkscape:version="1.0.1 (3bc2e813f5, 2020-09-07, custom)"
   sodipodi:docname="input.svg"
   viewBox="0 0 22 22"
   version="1.1"
   height="100%"
   width="100%"
   id="svg">
  <metadata
     id="metadata30">
    <rdf:RDF>
      <cc:Work
         rdf:about="">
        <dc:format>image/svg+xml</dc:format>
        <dc:type
           rdf:resource="http://purl.org/dc/dcmitype/StillImage" />
        <dc:title />
      </cc:Work>
    </rdf:RDF>
  </metadata>
  <sodipodi:namedview
     inkscape:current-layer="svg"
     inkscape:window-maximized="1"
     inkscape:window-y="38"
     inkscape:window-x="0"
     inkscape:cy="54.044104"
     inkscape:cx="5.0454897"
     inkscape:zoom="5.6568542"
     showgrid="true"
     id="namedview28"
     inkscape:window-height="939"
     inkscape:window-width="1920"
     inkscape:pageshadow="2"
     inkscape:pageopacity="0"
     guidetolerance="10"
     gridtolerance="10"
     objecttolerance="10"
     borderopacity="1"
     bordercolor="#666666"
     pagecolor="#329632"
     inkscape:document-rotation="0">
    <inkscape:grid
       id="grid901"
       type="xygrid" />
  </sodipodi:namedview>
  <defs
     id="defs7386">
    <style
       type="text/css"
       id="current-color-scheme">
   .ColorScheme-Text { color:#dedede; } .ColorScheme-Highlight { color:#5294e2; } .ColorScheme-ButtonBackground { color:#dedede; }
  </style>
  </defs>
  <rect
     style="opacity:0.01000001;fill:#eff0f1;fill-opacity:0.00392157;stroke:none"
     ry="0"
     rx="0"
     y="0"
     x="0"
     height="22"
     width="22"
     id="rect7291" />
  <g
     transform="translate(-50.005077,-0.00353452)"
     id="22-22-input-keyboard-battery">
    <rect
       y="0.00353452"
       x="50.005077"
       height="22"
       width="22"
       id="rect4147"
       style="fill:none;fill-rule:evenodd;stroke:none;stroke-width:1px;stroke-linecap:butt;stroke-linejoin:miter;stroke-opacity:1" />
    <path
       id="rect923"
       style="opacity:1;fill:#ebebeb;stroke-width:2"
       d="m 53,6 c -0.554,0 -1,0.446 -1,1 v 9 c 0,0.554 0.446,1 1,1 h 16 c 0.554,0 1,-0.446 1,-1 V 7 C 70,6.446 69.554,6 69,6 Z m 1,2 h 2 v 1 h -2 z m 3,0 h 2 v 1 h -2 z m 3,0 h 2 v 1 h -2 z m 3,0 h 2 v 1 h -2 z m 3,0 h 2 v 1 h -2 z m -12,2 h 2 v 1 h -2 z m 3,0 h 2 v 1 h -2 z m 3,0 h 2 v 1 h -2 z m 3,0 h 2 v 1 h -2 z m 3,0 h 2 v 1 h -2 z m -12,2 h 2 v 1 h -2 z m 3,0 h 2 v 1 h -2 z m 3,0 h 2 v 1 h -2 z m 3,0 h 2 v 1 h -2 z m 3,0 h 2 v 1 h -2 z m -12,2 h 2 v 1 h -2 z m 3,0 h 8 v 1 h -8 z m 9,0 h 2 v 1 h -2 z" />
  </g>
  <g
     id="input-keyboard"
     transform="translate(92,-25)">
    <path
       id="rect1086"
       style="fill:#ebebeb;stroke-width:2"
       d="m -58,28 c -0.554,0 -1,0.446 -1,1 v 15 c 0,0.554 0.446,1 1,1 h 24 c 0.554,0 1,-0.446 1,-1 V 29 c 0,-0.554 -0.446,-1 -1,-1 z m 1,3 h 3 v 2 h -3 z m 4,0 h 2 v 2 h -2 z m 3,0 h 2 v 2 h -2 z m 3,0 h 2 v 2 h -2 z m 3,0 h 2 v 2 h -2 z m 3,0 h 2 v 2 h -2 z m 3,0 h 3 v 2 h -3 z m -19,3 h 4 v 2 h -4 z m 5,0 h 2 v 2 h -2 z m 3,0 h 2 v 2 h -2 z m 3,0 h 2 v 2 h -2 z m 3,0 h 2 v 2 h -2 z m 3,0 h 2 v 2 h -2 z m 3,0 h 2 v 2 h -2 z m -20,3 h 5 v 2 h -5 z m 6,0 h 2 v 2 h -2 z m 3,0 h 2 v 2 h -2 z m 3,0 h 2 v 2 h -2 z m 3,0 h 2 v 2 h -2 z m 3,0 h 4 v 2 h -4 z m -18,3 h 2 v 2 h -2 z m 3,0 h 2 v 2 h -2 z m 3,0 h 11 v 2 h -11 z m 12,0 h 2 v 2 h -2 z m 3,0 h 1 v 2 h -1 z" />
    <rect
       style="fill:none;fill-rule:evenodd;stroke:none;stroke-width:1.45455px;stroke-linecap:butt;stroke-linejoin:miter;stroke-opacity:1"
       id="rect4196"
       width="32"
       height="32"
       x="-61.994926"
       y="20.003525" />
  </g>
  <g
     id="22-22-input-keyboard-virtual-on">
    <path
       inkscape:connector-curvature="0"
       style="fill:#11d116;fill-opacity:1;stroke:none"
       d="m -64.494924,12.003545 a 2.4999997,2.4999855 0 0 0 -2.5,2.5 2.4999997,2.4999855 0 0 0 2.5,2.5 2.4999997,2.4999855 0 0 0 2.5,-2.5 2.4999997,2.4999855 0 0 0 -2.5,-2.5 z"
       id="path8" />
    <rect
       style="fill:none;fill-opacity:1;stroke:none;stroke-linejoin:bevel"
       id="rect4140"
       width="22"
       height="22"
       x="-68.994926"
       y="10.003544" />
    <path
       d="m -66,18 c -0.554,0 -1,0.446 -1,1 v 9 c 0,0.554 0.446,1 1,1 h 16 c 0.554,0 1,-0.446 1,-1 v -9 c 0,-0.554 -0.446,-1 -1,-1 z m 1,2 h 2 v 1 h -2 z m 3,0 h 2 v 1 h -2 z m 3,0 h 2 v 1 h -2 z m 3,0 h 2 v 1 h -2 z m 3,0 h 2 v 1 h -2 z m -12,2 h 2 v 1 h -2 z m 3,0 h 2 v 1 h -2 z m 3,0 h 2 v 1 h -2 z m 3,0 h 2 v 1 h -2 z m 3,0 h 2 v 1 h -2 z m -12,2 h 2 v 1 h -2 z m 3,0 h 2 v 1 h -2 z m 3,0 h 2 v 1 h -2 z m 3,0 h 2 v 1 h -2 z m 3,0 h 2 v 1 h -2 z m -12,2 h 2 v 1 h -2 z m 3,0 h 8 v 1 h -8 z m 9,0 h 2 v 1 h -2 z"
       style="fill:#ebebeb;stroke-width:2"
       id="path1128" />
  </g>
  <g
     id="input-keyboard-virtual-on">
    <rect
       y="0.003534317"
       x="-46.994926"
       height="32"
       width="32"
       id="rect4192"
       style="fill:none;fill-rule:evenodd;stroke:none;stroke-width:1.45455px;stroke-linecap:butt;stroke-linejoin:miter;stroke-opacity:1" />
    <path
       inkscape:connector-curvature="0"
       style="fill:#11d116;fill-opacity:1;stroke:none;stroke-width:1.45455"
       d="m -41.494924,4.003537 a 2.4999996,2.4999855 0 0 0 -2.5,2.5 2.4999996,2.4999855 0 0 0 2.5,2.5 2.4999996,2.4999855 0 0 0 2.5,-2.5 2.4999996,2.4999855 0 0 0 -2.5,-2.5 z"
       id="path8-9" />
    <path
       d="m -43,11 c -0.554,0 -1,0.446 -1,1 v 15 c 0,0.554 0.446,1 1,1 h 24 c 0.554,0 1,-0.446 1,-1 V 12 c 0,-0.554 -0.446,-1 -1,-1 z m 1,3 h 3 v 2 h -3 z m 4,0 h 2 v 2 h -2 z m 3,0 h 2 v 2 h -2 z m 3,0 h 2 v 2 h -2 z m 3,0 h 2 v 2 h -2 z m 3,0 h 2 v 2 h -2 z m 3,0 h 3 v 2 h -3 z m -19,3 h 4 v 2 h -4 z m 5,0 h 2 v 2 h -2 z m 3,0 h 2 v 2 h -2 z m 3,0 h 2 v 2 h -2 z m 3,0 h 2 v 2 h -2 z m 3,0 h 2 v 2 h -2 z m 3,0 h 2 v 2 h -2 z m -20,3 h 5 v 2 h -5 z m 6,0 h 2 v 2 h -2 z m 3,0 h 2 v 2 h -2 z m 3,0 h 2 v 2 h -2 z m 3,0 h 2 v 2 h -2 z m 3,0 h 4 v 2 h -4 z m -18,3 h 2 v 2 h -2 z m 3,0 h 2 v 2 h -2 z m 3,0 h 11 v 2 h -11 z m 12,0 h 2 v 2 h -2 z m 3,0 h 1 v 2 h -1 z"
       style="fill:#ebebeb;stroke-width:2"
       id="path1132" />
  </g>
  <g
     id="22-22-input-keyboard-virtual-off">
    <rect
       y="41.003548"
       x="-67.994926"
       height="22"
       width="22"
       id="rect4172"
       style="fill:none;fill-opacity:1;stroke:none;stroke-linejoin:bevel" />
    <path
       id="path1142"
       style="fill:#ebebeb;stroke-width:2"
       d="m -65,49 c -0.554,0 -1,0.446 -1,1 v 9 c 0,0.554 0.446,1 1,1 h 16 c 0.554,0 1,-0.446 1,-1 v -9 c 0,-0.554 -0.446,-1 -1,-1 z m 1,2 h 2 v 1 h -2 z m 3,0 h 2 v 1 h -2 z m 3,0 h 2 v 1 h -2 z m 3,0 h 2 v 1 h -2 z m 3,0 h 2 v 1 h -2 z m -12,2 h 2 v 1 h -2 z m 3,0 h 2 v 1 h -2 z m 3,0 h 2 v 1 h -2 z m 3,0 h 2 v 1 h -2 z m 3,0 h 2 v 1 h -2 z m -12,2 h 2 v 1 h -2 z m 3,0 h 2 v 1 h -2 z m 3,0 h 2 v 1 h -2 z m 3,0 h 2 v 1 h -2 z m 3,0 h 2 v 1 h -2 z m -12,2 h 2 v 1 h -2 z m 3,0 h 8 v 1 h -8 z m 9,0 h 2 v 1 h -2 z" />
  </g>
  <g
     id="input-keyboard-virtual-off">
    <rect
       y="32.003544"
       x="-46.994926"
       height="32"
       width="32"
       id="rect4176"
       style="fill:none;fill-rule:evenodd;stroke:none;stroke-width:1.45455px;stroke-linecap:butt;stroke-linejoin:miter;stroke-opacity:1" />
    <path
       id="path1144"
       style="fill:#ebebeb;stroke-width:2"
       d="m -43,43 c -0.554,0 -1,0.446 -1,1 v 15 c 0,0.554 0.446,1 1,1 h 24 c 0.554,0 1,-0.446 1,-1 V 44 c 0,-0.554 -0.446,-1 -1,-1 z m 1,3 h 3 v 2 h -3 z m 4,0 h 2 v 2 h -2 z m 3,0 h 2 v 2 h -2 z m 3,0 h 2 v 2 h -2 z m 3,0 h 2 v 2 h -2 z m 3,0 h 2 v 2 h -2 z m 3,0 h 3 v 2 h -3 z m -19,3 h 4 v 2 h -4 z m 5,0 h 2 v 2 h -2 z m 3,0 h 2 v 2 h -2 z m 3,0 h 2 v 2 h -2 z m 3,0 h 2 v 2 h -2 z m 3,0 h 2 v 2 h -2 z m 3,0 h 2 v 2 h -2 z m -20,3 h 5 v 2 h -5 z m 6,0 h 2 v 2 h -2 z m 3,0 h 2 v 2 h -2 z m 3,0 h 2 v 2 h -2 z m 3,0 h 2 v 2 h -2 z m 3,0 h 4 v 2 h -4 z m -18,3 h 2 v 2 h -2 z m 3,0 h 2 v 2 h -2 z m 3,0 h 11 v 2 h -11 z m 12,0 h 2 v 2 h -2 z m 3,0 h 1 v 2 h -1 z" />
  </g>
  <g
     id="input-keyboard-brightness">
    <path
       sodipodi:nodetypes="ccccccccccccccccccccccccccccccccc"
       class="ColorScheme-Text"
       style="fill:#ebebeb;fill-opacity:1;stroke:none;stroke-opacity:1"
       d="m 11.5,-35 v 1.041016 c -0.445186,0.07736 -0.867146,0.254293 -1.234375,0.517578 l -0.740234,-0.740235 -0.707032,0.707032 0.738282,0.738281 C 9.2958612,-32.367823 9.1216104,-31.945215 9.046875,-31.5 H 8 v 1 h 1.041016 c 0.077364,0.445186 0.2542931,0.867146 0.517578,1.234375 l -0.740235,0.740234 0.707032,0.707032 0.738281,-0.738282 c 0.368505,0.26078 0.791113,0.435031 1.236328,0.509766 V -27 h 1 v -1.041016 c 0.445186,-0.07736 0.867146,-0.254293 1.234375,-0.517578 l 0.740234,0.740235 0.707032,-0.707032 -0.738282,-0.738281 c 0.26078,-0.368505 0.435031,-0.791113 0.509766,-1.236328 H 16 v -1 h -1.041016 c -0.07736,-0.445186 -0.254293,-0.867146 -0.517578,-1.234375 l 0.740235,-0.740234 -0.707032,-0.707032 -0.738281,0.738282 C 13.367823,-33.704139 12.945215,-33.87839 12.5,-33.953125 V -35 Z"
       id="path4160" />
    <rect
       style="opacity:0;fill:#0000ff;fill-opacity:1;stroke:none;stroke-opacity:1"
       y="-39"
       x="-4"
       height="32"
       width="32"
       id="rect4150" />
    <path
       d="m 0,-27 c -0.554,0 -1,0.446 -1,1 v 15 c 0,0.554 0.446,1 1,1 h 24 c 0.554,0 1,-0.446 1,-1 v -15 c 0,-0.554 -0.446,-1 -1,-1 z m 1,3 h 3 v 2 H 1 Z m 4,0 h 2 v 2 H 5 Z m 3,0 h 2 v 2 H 8 Z m 3,0 h 2 v 2 h -2 z m 3,0 h 2 v 2 h -2 z m 3,0 h 2 v 2 h -2 z m 3,0 h 3 v 2 h -3 z m -19,3 h 4 v 2 H 1 Z m 5,0 h 2 v 2 H 6 Z m 3,0 h 2 v 2 H 9 Z m 3,0 h 2 v 2 h -2 z m 3,0 h 2 v 2 h -2 z m 3,0 h 2 v 2 h -2 z m 3,0 h 2 v 2 h -2 z m -20,3 h 5 v 2 H 1 Z m 6,0 h 2 v 2 H 7 Z m 3,0 h 2 v 2 h -2 z m 3,0 h 2 v 2 h -2 z m 3,0 h 2 v 2 h -2 z m 3,0 h 4 v 2 h -4 z m -18,3 h 2 v 2 H 1 Z m 3,0 h 2 v 2 H 4 Z m 3,0 h 11 v 2 H 7 Z m 12,0 h 2 v 2 h -2 z m 3,0 h 1 v 2 h -1 z"
       style="fill:#ebebeb;stroke-width:2"
       id="path1266" />
  </g>
  <g
     id="input-keyboard-battery">
    <rect
       style="opacity:0;fill:#0000ff;fill-opacity:1;stroke:none;stroke-opacity:1"
       y="-39"
       x="31"
       height="32"
       width="32"
       id="rect4385" />
    <path
       sodipodi:nodetypes="ccccccccc"
       class="ColorScheme-Text"
       style="fill:#ebebeb;fill-opacity:1;stroke:none;stroke-opacity:1"
       d="m 48,-35 -4,5 h 2 v 3 l 4,-5 h -2 z"
       id="path4387" />
    <path
       id="path1274"
       style="fill:#ebebeb;stroke-width:2"
       d="m 35,-27 c -0.554,0 -1,0.446 -1,1 v 15 c 0,0.554 0.446,1 1,1 h 24 c 0.554,0 1,-0.446 1,-1 v -15 c 0,-0.554 -0.446,-1 -1,-1 z m 1,3 h 3 v 2 h -3 z m 4,0 h 2 v 2 h -2 z m 3,0 h 2 v 2 h -2 z m 3,0 h 2 v 2 h -2 z m 3,0 h 2 v 2 h -2 z m 3,0 h 2 v 2 h -2 z m 3,0 h 3 v 2 h -3 z m -19,3 h 4 v 2 h -4 z m 5,0 h 2 v 2 h -2 z m 3,0 h 2 v 2 h -2 z m 3,0 h 2 v 2 h -2 z m 3,0 h 2 v 2 h -2 z m 3,0 h 2 v 2 h -2 z m 3,0 h 2 v 2 h -2 z m -20,3 h 5 v 2 h -5 z m 6,0 h 2 v 2 h -2 z m 3,0 h 2 v 2 h -2 z m 3,0 h 2 v 2 h -2 z m 3,0 h 2 v 2 h -2 z m 3,0 h 4 v 2 h -4 z m -18,3 h 2 v 2 h -2 z m 3,0 h 2 v 2 h -2 z m 3,0 h 11 v 2 H 42 Z m 12,0 h 2 v 2 h -2 z m 3,0 h 1 v 2 h -1 z" />
  </g>
  <g
     transform="translate(0,-21)"
     id="input-caps-on">
    <rect
       y="51"
       x="-6"
       height="32"
       width="32"
       id="rect978"
       style="opacity:0.00100002;fill:#000000;fill-opacity:1;stroke:none;stroke-width:0.713687;stroke-linecap:round;stroke-linejoin:round;stroke-miterlimit:4;stroke-dasharray:none;stroke-opacity:1" />
    <path
       id="path880"
       style="color:#31363b;fill:#eaeaea;fill-opacity:1;stroke:none"
       d="m 0,55 v 20 l 10,4 10,-4 V 56 55 h -1 z m 9.40625,4 H 10.5 L 15,69 H 13.695312 L 12.345703,66 H 7.6230469 L 6.3007812,69 H 5 Z M 9.9589844,60.695312 8.0625,65 h 3.833984 z M 1,73 h 18 v 1 H 1 Z" />
  </g>
  <g
     id="input-mouse-battery"
     transform="translate(32,-170.45507)">
    <path
       id="path906"
       style="opacity:1;fill:#ffffff;stroke:none;stroke-width:2.23318;stroke-linecap:round;stroke-linejoin:round;paint-order:stroke fill markers"
       d="m 42.946429,228.00005 a 7.9999058,8.7275102 0 0 0 -0.243301,0.006 7.9999058,8.7275102 0 0 0 -0.245531,0.0128 7.9999058,8.7275102 0 0 0 -0.245533,0.0234 7.9999058,8.7275102 0 0 0 -0.243302,0.0298 7.9999058,8.7275102 0 0 0 -0.2433,0.0383 7.9999058,8.7275102 0 0 0 -0.241069,0.0469 7.9999058,8.7275102 0 0 0 -0.241068,0.0554 7.9999058,8.7275102 0 0 0 -0.236606,0.0618 7.9999058,8.7275102 0 0 0 -0.236604,0.0703 7.9999058,8.7275102 0 0 0 -0.236604,0.0788 7.9999058,8.7275102 0 0 0 -0.23214,0.0874 7.9999058,8.7275102 0 0 0 -0.227676,0.0937 7.9999058,8.7275102 0 0 0 -0.227677,0.10228 7.9999058,8.7275102 0 0 0 -0.22321,0.10867 7.9999058,8.7275102 0 0 0 -0.220981,0.11719 7.9999058,8.7275102 0 0 0 -0.218746,0.12357 7.9999058,8.7275102 0 0 0 -0.214284,0.13211 7.9999058,8.7275102 0 0 0 -0.209818,0.1385 7.9999058,8.7275102 0 0 0 -0.205355,0.14489 7.9999058,8.7275102 0 0 0 -0.20089,0.15128 7.9999058,8.7275102 0 0 0 -0.198659,0.15982 7.9999058,8.7275102 0 0 0 -0.191961,0.16406 7.9999058,8.7275102 0 0 0 -0.189731,0.17259 7.9999058,8.7275102 0 0 0 -0.183034,0.17897 7.9999058,8.7275102 0 0 0 -0.17857,0.18325 7.9999058,8.7275102 0 0 0 -0.171873,0.18964 7.9999058,8.7275102 0 0 0 -0.167407,0.19603 7.9999058,8.7275102 0 0 0 -0.162945,0.20029 7.9999058,8.7275102 0 0 0 -0.156248,0.20668 7.9999058,8.7275102 0 0 0 -0.149552,0.21094 7.9999058,8.7275102 0 0 0 -0.145087,0.21734 7.9999058,8.7275102 0 0 0 -0.136159,0.22159 7.9999058,8.7275102 0 0 0 -0.133928,0.22586 7.9999058,8.7275102 0 0 0 -0.124998,0.23011 7.9999058,8.7275102 0 0 0 -0.118303,0.23439 7.9999058,8.7275102 0 0 0 -0.111605,0.23652 7.9999058,8.7275102 0 0 0 -0.107142,0.2429 7.9999058,8.7275102 0 0 0 -0.09821,0.24502 7.9999058,8.7275102 0 0 0 -0.09152,0.24717 7.9999058,8.7275102 0 0 0 -0.08483,0.25143 7.9999058,8.7275102 0 0 0 -0.07812,0.25356 7.9999058,8.7275102 0 0 0 -0.0692,0.25782 7.9999058,8.7275102 0 0 0 -0.06473,0.25783 7.9999058,8.7275102 0 0 0 -0.05581,0.25994 7.9999058,8.7275102 0 0 0 -0.04687,0.26209 7.9999058,8.7275102 0 0 0 -0.04241,0.2642 7.9999058,8.7275102 0 0 0 -0.03348,0.26634 7.9999058,8.7275102 0 0 0 -0.02679,0.26635 7.9999058,8.7275102 0 0 0 -0.01786,0.26635 7.9999058,8.7275102 0 0 0 -0.01116,0.26635 7.9999058,8.7275102 0 0 0 -0.0045,0.26846 v 6.54563 a 7.9999058,8.7275102 0 0 0 0,0.0575 7.9999058,8.7275102 0 0 0 0.0045,0.26635 7.9999058,8.7275102 0 0 0 0.01339,0.26847 7.9999058,8.7275102 0 0 0 0.02009,0.26635 7.9999058,8.7275102 0 0 0 0.02902,0.26633 7.9999058,8.7275102 0 0 0 0.03571,0.26422 7.9999058,8.7275102 0 0 0 0.04241,0.2642 7.9999058,8.7275102 0 0 0 0.0491,0.26209 7.9999058,8.7275102 0 0 0 0.05804,0.25995 7.9999058,8.7275102 0 0 0 0.06473,0.25782 7.9999058,8.7275102 0 0 0 0.07143,0.25569 7.9999058,8.7275102 0 0 0 0.08035,0.25356 7.9999058,8.7275102 0 0 0 0.08706,0.25142 7.9999058,8.7275102 0 0 0 0.09152,0.24717 7.9999058,8.7275102 0 0 0 0.100444,0.24504 7.9999058,8.7275102 0 0 0 0.107141,0.24078 7.9999058,8.7275102 0 0 0 0.113838,0.23649 7.9999058,8.7275102 0 0 0 0.120535,0.23438 7.9999058,8.7275102 0 0 0 0.12723,0.22799 7.9999058,8.7275102 0 0 0 0.133928,0.22587 7.9999058,8.7275102 0 0 0 0.13839,0.21946 7.9999058,8.7275102 0 0 0 0.145089,0.2152 7.9999058,8.7275102 0 0 0 0.151783,0.21095 7.9999058,8.7275102 0 0 0 0.158481,0.20454 7.9999058,8.7275102 0 0 0 0.162944,0.2003 7.9999058,8.7275102 0 0 0 0.167408,0.1939 7.9999058,8.7275102 0 0 0 0.174106,0.18963 7.9999058,8.7275102 0 0 0 0.180801,0.18111 7.9999058,8.7275102 0 0 0 0.183034,0.17685 7.9999058,8.7275102 0 0 0 0.18973,0.17046 7.9999058,8.7275102 0 0 0 0.194193,0.16407 7.9999058,8.7275102 0 0 0 0.198659,0.15768 7.9999058,8.7275102 0 0 0 0.203124,0.15129 7.9999058,8.7275102 0 0 0 0.205354,0.14275 7.9999058,8.7275102 0 0 0 0.212051,0.13849 7.9999058,8.7275102 0 0 0 0.214283,0.12999 7.9999058,8.7275102 0 0 0 0.218748,0.12145 7.9999058,8.7275102 0 0 0 0.220979,0.11506 7.9999058,8.7275102 0 0 0 0.225444,0.10867 7.9999058,8.7275102 0 0 0 0.225444,0.10013 7.9999058,8.7275102 0 0 0 0.232139,0.0916 7.9999058,8.7275102 0 0 0 0.232141,0.0852 7.9999058,8.7275102 0 0 0 0.234372,0.0767 7.9999058,8.7275102 0 0 0 0.236605,0.0682 7.9999058,8.7275102 0 0 0 0.238835,0.0618 7.9999058,8.7275102 0 0 0 0.241069,0.0533 7.9999058,8.7275102 0 0 0 0.243302,0.0448 7.9999058,8.7275102 0 0 0 0.241067,0.0362 7.9999058,8.7275102 0 0 0 0.245534,0.0298 7.9999058,8.7275102 0 0 0 0.2433,0.0192 7.9999058,8.7275102 0 0 0 0.245533,0.0128 7.9999058,8.7275102 0 0 0 0.245533,0.004 7.9999058,8.7275102 0 0 0 0.05358,0 7.9999058,8.7275102 0 0 0 0.243301,-0.006 7.9999058,8.7275102 0 0 0 0.245531,-0.0128 7.9999058,8.7275102 0 0 0 0.245533,-0.0234 7.9999058,8.7275102 0 0 0 0.243302,-0.0298 7.9999058,8.7275102 0 0 0 0.2433,-0.0383 7.9999058,8.7275102 0 0 0 0.241069,-0.0469 7.9999058,8.7275102 0 0 0 0.241068,-0.0554 7.9999058,8.7275102 0 0 0 0.236606,-0.0618 7.9999058,8.7275102 0 0 0 0.236604,-0.0703 7.9999058,8.7275102 0 0 0 0.236604,-0.0788 7.9999058,8.7275102 0 0 0 0.23214,-0.0874 7.9999058,8.7275102 0 0 0 0.227676,-0.0937 7.9999058,8.7275102 0 0 0 0.227677,-0.10228 7.9999058,8.7275102 0 0 0 0.22321,-0.10866 7.9999058,8.7275102 0 0 0 0.220981,-0.1172 7.9999058,8.7275102 0 0 0 0.218746,-0.12357 7.9999058,8.7275102 0 0 0 0.214284,-0.13211 7.9999058,8.7275102 0 0 0 0.209818,-0.1385 7.9999058,8.7275102 0 0 0 0.205355,-0.14489 7.9999058,8.7275102 0 0 0 0.20089,-0.15128 7.9999058,8.7275102 0 0 0 0.198659,-0.15982 7.9999058,8.7275102 0 0 0 0.191961,-0.16406 7.9999058,8.7275102 0 0 0 0.189731,-0.17259 7.9999058,8.7275102 0 0 0 0.183034,-0.17897 7.9999058,8.7275102 0 0 0 0.17857,-0.18325 7.9999058,8.7275102 0 0 0 0.171873,-0.18963 7.9999058,8.7275102 0 0 0 0.167407,-0.19604 7.9999058,8.7275102 0 0 0 0.162945,-0.20029 7.9999058,8.7275102 0 0 0 0.156248,-0.20667 7.9999058,8.7275102 0 0 0 0.149552,-0.21095 7.9999058,8.7275102 0 0 0 0.145087,-0.21734 7.9999058,8.7275102 0 0 0 0.136159,-0.2216 7.9999058,8.7275102 0 0 0 0.133928,-0.22585 7.9999058,8.7275102 0 0 0 0.124998,-0.23012 7.9999058,8.7275102 0 0 0 0.118303,-0.23439 7.9999058,8.7275102 0 0 0 0.111605,-0.23651 7.9999058,8.7275102 0 0 0 0.107142,-0.24289 7.9999058,8.7275102 0 0 0 0.09821,-0.24503 7.9999058,8.7275102 0 0 0 0.09152,-0.24717 7.9999058,8.7275102 0 0 0 0.08483,-0.25143 7.9999058,8.7275102 0 0 0 0.07812,-0.25356 7.9999058,8.7275102 0 0 0 0.0692,-0.25781 7.9999058,8.7275102 0 0 0 0.06473,-0.25783 7.9999058,8.7275102 0 0 0 0.05581,-0.25995 7.9999058,8.7275102 0 0 0 0.04687,-0.26209 7.9999058,8.7275102 0 0 0 0.04241,-0.2642 7.9999058,8.7275102 0 0 0 0.03348,-0.26634 7.9999058,8.7275102 0 0 0 0.02679,-0.26635 7.9999058,8.7275102 0 0 0 0.01786,-0.26634 7.9999058,8.7275102 0 0 0 0.01116,-0.26635 7.9999058,8.7275102 0 0 0 0.0045,-0.26847 v -6.54563 a 7.9999058,8.7275102 0 0 0 0,-0.0575 7.9999058,8.7275102 0 0 0 -0.0045,-0.26635 7.9999058,8.7275102 0 0 0 -0.01339,-0.26846 7.9999058,8.7275102 0 0 0 -0.02009,-0.26635 7.9999058,8.7275102 0 0 0 -0.02902,-0.26634 7.9999058,8.7275102 0 0 0 -0.03571,-0.26422 7.9999058,8.7275102 0 0 0 -0.04241,-0.2642 7.9999058,8.7275102 0 0 0 -0.0491,-0.26209 7.9999058,8.7275102 0 0 0 -0.05804,-0.25995 7.9999058,8.7275102 0 0 0 -0.06473,-0.25781 7.9999058,8.7275102 0 0 0 -0.07143,-0.25569 7.9999058,8.7275102 0 0 0 -0.08035,-0.25357 7.9999058,8.7275102 0 0 0 -0.08706,-0.25142 7.9999058,8.7275102 0 0 0 -0.09152,-0.24717 7.9999058,8.7275102 0 0 0 -0.100444,-0.24504 7.9999058,8.7275102 0 0 0 -0.107141,-0.24077 7.9999058,8.7275102 0 0 0 -0.113838,-0.23651 7.9999058,8.7275102 0 0 0 -0.120535,-0.23438 7.9999058,8.7275102 0 0 0 -0.12723,-0.22799 7.9999058,8.7275102 0 0 0 -0.133928,-0.22586 7.9999058,8.7275102 0 0 0 -0.13839,-0.21946 7.9999058,8.7275102 0 0 0 -0.145089,-0.2152 7.9999058,8.7275102 0 0 0 -0.151783,-0.21094 7.9999058,8.7275102 0 0 0 -0.158481,-0.20455 7.9999058,8.7275102 0 0 0 -0.162944,-0.2003 7.9999058,8.7275102 0 0 0 -0.167408,-0.19389 7.9999058,8.7275102 0 0 0 -0.174106,-0.18964 7.9999058,8.7275102 0 0 0 -0.180801,-0.18111 7.9999058,8.7275102 0 0 0 -0.183034,-0.17685 7.9999058,8.7275102 0 0 0 -0.18973,-0.17046 7.9999058,8.7275102 0 0 0 -0.194193,-0.16406 7.9999058,8.7275102 0 0 0 -0.198659,-0.15769 7.9999058,8.7275102 0 0 0 -0.203124,-0.15128 7.9999058,8.7275102 0 0 0 -0.205354,-0.14276 7.9999058,8.7275102 0 0 0 -0.212051,-0.13849 7.9999058,8.7275102 0 0 0 -0.214283,-0.12999 7.9999058,8.7275102 0 0 0 -0.218748,-0.12145 7.9999058,8.7275102 0 0 0 -0.220979,-0.11505 7.9999058,8.7275102 0 0 0 -0.225444,-0.10868 7.9999058,8.7275102 0 0 0 -0.225444,-0.10013 7.9999058,8.7275102 0 0 0 -0.232139,-0.0916 7.9999058,8.7275102 0 0 0 -0.232141,-0.0852 7.9999058,8.7275102 0 0 0 -0.234372,-0.0767 7.9999058,8.7275102 0 0 0 -0.236605,-0.0682 7.9999058,8.7275102 0 0 0 -0.238835,-0.0618 7.9999058,8.7275102 0 0 0 -0.241069,-0.0533 7.9999058,8.7275102 0 0 0 -0.243302,-0.0448 7.9999058,8.7275102 0 0 0 -0.241067,-0.0362 7.9999058,8.7275102 0 0 0 -0.245534,-0.0298 7.9999058,8.7275102 0 0 0 -0.2433,-0.0192 7.9999058,8.7275102 0 0 0 -0.245533,-0.0128 7.9999058,8.7275102 0 0 0 -0.245533,-0.004 7.9999058,8.7275102 0 0 0 -0.05357,0 z M 43,231.27287 a 1.1428436,1.0909388 0 0 1 0.06473,0.002 1.1428436,1.0909388 0 0 1 0.09598,0.009 1.1428436,1.0909388 0 0 1 0.09375,0.017 1.1428436,1.0909388 0 0 1 0.09375,0.0234 1.1428436,1.0909388 0 0 1 0.08929,0.032 1.1428436,1.0909388 0 0 1 0.08706,0.0383 1.1428436,1.0909388 0 0 1 0.08483,0.0469 1.1428436,1.0909388 0 0 1 0.07812,0.0511 1.1428436,1.0909388 0 0 1 0.07366,0.0575 1.1428436,1.0909388 0 0 1 0.0692,0.0639 1.1428436,1.0909388 0 0 1 0.0625,0.0703 1.1428436,1.0909388 0 0 1 0.05804,0.0746 1.1428436,1.0909388 0 0 1 0.04911,0.0767 1.1428436,1.0909388 0 0 1 0.04241,0.0831 1.1428436,1.0909388 0 0 1 0.03571,0.0852 1.1428436,1.0909388 0 0 1 0.02902,0.0874 1.1428436,1.0909388 0 0 1 0.02009,0.0895 1.1428436,1.0909388 0 0 1 0.01116,0.0916 1.1428436,1.0909388 0 0 1 0.0045,0.0916 v 3.27282 a 1.1428436,1.0909388 0 0 1 -0.0022,0.0618 1.1428436,1.0909388 0 0 1 -0.0089,0.0916 1.1428436,1.0909388 0 0 1 -0.01786,0.0895 1.1428436,1.0909388 0 0 1 -0.02456,0.0895 1.1428436,1.0909388 0 0 1 -0.03348,0.0852 1.1428436,1.0909388 0 0 1 -0.04018,0.0831 1.1428436,1.0909388 0 0 1 -0.0491,0.081 1.1428436,1.0909388 0 0 1 -0.05357,0.0746 1.1428436,1.0909388 0 0 1 -0.06027,0.0703 1.1428436,1.0909388 0 0 1 -0.06696,0.066 1.1428436,1.0909388 0 0 1 -0.07366,0.0597 1.1428436,1.0909388 0 0 1 -0.07812,0.0554 1.1428436,1.0909388 0 0 1 -0.08035,0.0469 1.1428436,1.0909388 0 0 1 -0.08706,0.0405 1.1428436,1.0909388 0 0 1 -0.08929,0.0341 1.1428436,1.0909388 0 0 1 -0.09152,0.0277 1.1428436,1.0909388 0 0 1 -0.09375,0.0192 1.1428436,1.0909388 0 0 1 -0.09598,0.0106 1.1428436,1.0909388 0 0 1 -0.09598,0.004 1.1428436,1.0909388 0 0 1 -0.06473,-0.002 1.1428436,1.0909388 0 0 1 -0.09598,-0.009 1.1428436,1.0909388 0 0 1 -0.09375,-0.017 1.1428436,1.0909388 0 0 1 -0.09375,-0.0234 1.1428436,1.0909388 0 0 1 -0.08929,-0.0319 1.1428436,1.0909388 0 0 1 -0.08706,-0.0384 1.1428436,1.0909388 0 0 1 -0.08483,-0.0469 1.1428436,1.0909388 0 0 1 -0.07812,-0.0511 1.1428436,1.0909388 0 0 1 -0.07366,-0.0575 1.1428436,1.0909388 0 0 1 -0.06919,-0.0639 1.1428436,1.0909388 0 0 1 -0.0625,-0.0703 1.1428436,1.0909388 0 0 1 -0.05804,-0.0746 1.1428436,1.0909388 0 0 1 -0.04911,-0.0767 1.1428436,1.0909388 0 0 1 -0.04241,-0.0831 1.1428436,1.0909388 0 0 1 -0.03571,-0.0852 1.1428436,1.0909388 0 0 1 -0.02902,-0.0874 1.1428436,1.0909388 0 0 1 -0.02009,-0.0895 1.1428436,1.0909388 0 0 1 -0.01116,-0.0916 1.1428436,1.0909388 0 0 1 -0.0045,-0.0916 v -3.27282 a 1.1428436,1.0909388 0 0 1 0.0022,-0.0618 1.1428436,1.0909388 0 0 1 0.0089,-0.0916 1.1428436,1.0909388 0 0 1 0.01786,-0.0895 1.1428436,1.0909388 0 0 1 0.02456,-0.0895 1.1428436,1.0909388 0 0 1 0.03348,-0.0852 1.1428436,1.0909388 0 0 1 0.04018,-0.0831 1.1428436,1.0909388 0 0 1 0.0491,-0.081 1.1428436,1.0909388 0 0 1 0.05358,-0.0746 1.1428436,1.0909388 0 0 1 0.06027,-0.0703 1.1428436,1.0909388 0 0 1 0.06696,-0.066 1.1428436,1.0909388 0 0 1 0.07366,-0.0597 1.1428436,1.0909388 0 0 1 0.07812,-0.0554 1.1428436,1.0909388 0 0 1 0.08035,-0.0469 1.1428436,1.0909388 0 0 1 0.08706,-0.0405 1.1428436,1.0909388 0 0 1 0.08929,-0.0341 1.1428436,1.0909388 0 0 1 0.09152,-0.0277 1.1428436,1.0909388 0 0 1 0.09375,-0.0192 1.1428436,1.0909388 0 0 1 0.09598,-0.0106 1.1428436,1.0909388 0 0 1 0.09596,-0.004 z m 0,8.7275 v 3.27282 h 2.285687 L 43,248.72789 v -3.27282 h -2.285687 z" />
    <rect
       style="fill:none"
       id="rect893"
       width="32"
       height="32"
       x="27"
       y="223.99998"
       ry="0" />
  </g>
  <g
     transform="translate(-294,-470.81727)"
     id="22-22-input-mouse-battery">
    <rect
       style="opacity:1;fill:none"
       width="22"
       height="22"
       x="326"
       y="534.36218"
       ry="0"
       id="rect8" />
    <path
       class="ColorScheme-Text"
       style="color:#31363b;fill:#ffffff;fill-opacity:1;stroke:none"
       d="M 13.5,3 C 10.453,3 8,5.676 8,9 v 4 c 0,3.324 2.453,6 5.5,6 3.047,0 5.5,-2.676 5.5,-6 V 9 C 19,5.676 16.547,3 13.5,3 Z m 0,1 C 15.993,4 18,6.007 18,8.5 v 5 C 18,15.993 15.993,18 13.5,18 11.007,18 9,15.993 9,13.5 v -5 C 9,6.007 11.007,4 13.5,4 Z m 0,2 C 13.223,6 13,6.223 13,6.5 v 2 C 13,8.777 13.223,9 13.5,9 13.777,9 14,8.777 14,8.5 v -2 C 14,6.223 13.777,6 13.5,6 Z"
       transform="translate(326,534.3622)"
       id="path10"
       inkscape:connector-curvature="0" />
    <path
       class="ColorScheme-Text"
       style="color:#31363b;fill:#ffffff;fill-opacity:1;stroke:none"
       d="m 331,537.3622 -2,5 h 2 v 3 l 2,-5 h -2 z"
       id="path12"
       inkscape:connector-curvature="0" />
  </g>
  <g
     id="16-16-input-mouse-battery"
     transform="translate(-287,-467.81727)">
    <path
       id="path4196"
       class="ColorScheme-Text"
       transform="translate(319,457.36217)"
       d="m -8,82 a 4,4 0 0 0 -4,4 v 4 a 4,4 0 0 0 4,4 4,4 0 0 0 4,-4 v -4 a 4,4 0 0 0 -4,-4 z m 0,1 a 3,3 0 0 1 3,3 v 4 a 3,3 0 0 1 -3,3 3,3 0 0 1 -3,-3 v -4 a 3,3 0 0 1 3,-3 z m 0,1 -2,5 h 2 v 3 l 2,-5 h -2 z"
       style="color:#31363b;fill:#ffffff;fill-opacity:1;stroke:none"
       inkscape:connector-curvature="0" />
    <rect
       style="opacity:1;fill:none"
       id="rect4442"
       width="16"
       height="16"
       x="303"
       y="537.36218" />
  </g>
</svg>
