<?xml version="1.0" encoding="UTF-8" standalone="no"?>
<svg
   xmlns:dc="http://purl.org/dc/elements/1.1/"
   xmlns:cc="http://creativecommons.org/ns#"
   xmlns:rdf="http://www.w3.org/1999/02/22-rdf-syntax-ns#"
   xmlns:svg="http://www.w3.org/2000/svg"
   xmlns="http://www.w3.org/2000/svg"
   xmlns:sodipodi="http://sodipodi.sourceforge.net/DTD/sodipodi-0.dtd"
   xmlns:inkscape="http://www.inkscape.org/namespaces/inkscape"
   id="svg2817"
   width="32"
   height="32"
   version="1"
   sodipodi:docname="kate.svg"
   inkscape:version="1.0.1 (3bc2e813f5, 2020-09-07)">
  <metadata
     id="metadata13">
    <rdf:RDF>
      <cc:Work
         rdf:about="">
        <dc:format>image/svg+xml</dc:format>
        <dc:type
           rdf:resource="http://purl.org/dc/dcmitype/StillImage" />
        <dc:title />
      </cc:Work>
    </rdf:RDF>
  </metadata>
  <sodipodi:namedview
     pagecolor="#c8c8c8"
     bordercolor="#666666"
     borderopacity="1"
     objecttolerance="10"
     gridtolerance="10"
     guidetolerance="10"
     inkscape:pageopacity="0"
     inkscape:pageshadow="2"
     inkscape:window-width="1920"
     inkscape:window-height="907"
     id="namedview11"
     showgrid="true"
     inkscape:zoom="7.451991"
     inkscape:cx="-15.282546"
     inkscape:cy="22.672222"
     inkscape:window-x="0"
     inkscape:window-y="70"
     inkscape:window-maximized="1"
     inkscape:current-layer="svg2817"
     inkscape:document-rotation="0"
     inkscape:snap-bbox="true"
     inkscape:bbox-nodes="true"
     inkscape:snap-bbox-edge-midpoints="true">
    <inkscape:grid
       type="xygrid"
       id="grid876" />
  </sodipodi:namedview>
  <defs
     id="defs12">
    <style
       id="current-color-scheme"
       type="text/css">
   .ColorScheme-Text { color:#dedede; } .ColorScheme-Highlight { color:#5294e2; } .ColorScheme-ButtonBackground { color:#dedede; }
  </style>
  </defs>
  <g
     fill="currentColor"
     class="ColorScheme-Text"
     id="22-22-kate"
     style="color:#363636"
     transform="translate(-74.924893)">
    <path
       id="path7"
       fill="none"
       d="M 49,5 H 71 V 27 H 49 Z" />
    <path
       id="path9"
       d="m 59.098,7.004 c -1.3134,0.043481 -2.7956,0.45116 -4.2359,1.4945 -1.4953,1.0832 -2.1517,1.3791 -2.877,1.7392 0.64623,0.04931 4.5128,-0.50253 5.1969,1.7687 0.03186,-0.0098 0.16724,-0.04853 0.21224,-0.06191 -2.7813,0.77408 -4.3328,2.554 -3.157,5.0259 1.18,2.4809 3.2189,2.5402 5.7363,4.2241 1.9653,1.3146 2.4461,1.9834 3.7142,3.8055 -0.26371,-2.5177 -1.4821,-5.7628 -2.0516,-7.1925 2.1987,1.3151 3.3134,1.6097 6.3789,1.9308 -3.978,-2.8317 -4.7328,-3.3857 -7.0098,-5.3266 -1.5276,0.07701 -1.3601,0.06329 -2.2609,0.11496 1.1859,1.6735 1.6553,4.1327 -0.51291,4.5838 -2.0295,0.42222 -3.9876,-1.3308 -3.4312,-3.2072 0.60416,-2.0375 3.2127,-1.6451 5.9486,-1.9986 2.7358,-0.35344 5.2351,-3.037 6.7386,-5.023 -2.1468,0.73248 -4.9009,1.5683 -7.9353,2.4378 -0.61458,-1.2 -1.401,-3.4673 2.7679,-3.6257 -0.76362,-0.41434 -1.9085,-0.73326 -3.2219,-0.68977 z" />
  </g>
  <g
     id="kate">
    <rect
       id="rect12"
       fill="none"
       height="32"
       width="32"
       y="-1e-06"
       x="-2.8954e-08"
       style="color:#363636" />
    <path
       style="color:#363636;font-style:normal;font-variant:normal;font-weight:normal;font-stretch:normal;font-size:medium;line-height:normal;font-family:sans-serif;font-variant-ligatures:normal;font-variant-position:normal;font-variant-caps:normal;font-variant-numeric:normal;font-variant-alternates:normal;font-variant-east-asian:normal;font-feature-settings:normal;font-variation-settings:normal;text-indent:0;text-align:start;text-decoration:none;text-decoration-line:none;text-decoration-style:solid;text-decoration-color:#000000;letter-spacing:normal;word-spacing:normal;text-transform:none;writing-mode:lr-tb;direction:ltr;text-orientation:mixed;dominant-baseline:auto;baseline-shift:baseline;text-anchor:start;white-space:normal;shape-padding:0;shape-margin:0;inline-size:0;clip-rule:nonzero;display:inline;overflow:visible;visibility:visible;isolation:auto;mix-blend-mode:normal;color-interpolation:sRGB;color-interpolation-filters:linearRGB;solid-color:#000000;solid-opacity:1;vector-effect:none;fill:#fafafa;fill-opacity:1;fill-rule:nonzero;stroke:none;stroke-width:1.55591;stroke-linecap:butt;stroke-linejoin:miter;stroke-miterlimit:4;stroke-dasharray:none;stroke-dashoffset:0;stroke-opacity:1;color-rendering:auto;image-rendering:auto;shape-rendering:auto;text-rendering:auto;enable-background:accumulate;stop-color:#000000"
       d="M 14.596469,4.0000311 C 12.55295,4.0676816 10.246795,4.701991 8.0058316,6.3253239 5.6792942,8.0106749 4.6580014,8.4710658 3.529507,9.0313455 c 1.0054693,0.076721 7.021466,-0.7818866 8.085858,2.7519205 0.04957,-0.01525 0.260208,-0.07551 0.330224,-0.09632 -4.3274254,1.204391 -6.7414045,3.973768 -4.9119771,7.819797 1.8359625,3.860034 5.0082871,3.952298 8.9251101,6.572278 3.057811,2.045386 3.805888,3.085972 5.778925,5.920979 -0.410306,-3.91729 -2.306,-8.966342 -3.192085,-11.190812 3.420957,2.046163 5.155318,2.504532 9.924931,3.004132 -6.189372,-4.405843 -7.363765,-5.267811 -10.90655,-8.287657 -2.376792,0.119819 -2.116179,0.09847 -3.517733,0.178866 1.845142,2.603799 2.575481,6.430068 -0.798038,7.131934 C 10.090473,23.493395 7.0438653,20.765871 7.9095681,17.846381 8.8495806,14.676233 12.908208,15.286769 17.164996,14.736758 21.421627,14.186841 25.310288,10.011489 27.649585,6.9214718 24.309379,8.0611326 20.024273,9.3615852 15.30305,10.714441 14.346825,8.8473602 13.123234,5.3196679 19.609626,5.0732133 18.42151,4.4285416 16.640191,3.932334 14.596671,4 Z"
       id="path890" />
  </g>
</svg>
