<?xml version="1.0" encoding="UTF-8" standalone="no"?>
<svg
   xmlns:dc="http://purl.org/dc/elements/1.1/"
   xmlns:cc="http://creativecommons.org/ns#"
   xmlns:rdf="http://www.w3.org/1999/02/22-rdf-syntax-ns#"
   xmlns:svg="http://www.w3.org/2000/svg"
   xmlns="http://www.w3.org/2000/svg"
   xmlns:sodipodi="http://sodipodi.sourceforge.net/DTD/sodipodi-0.dtd"
   xmlns:inkscape="http://www.inkscape.org/namespaces/inkscape"
   width="22"
   height="22"
   version="1.1"
   id="svg12"
   sodipodi:docname="yakuake.svg"
   inkscape:version="1.0.1 (3bc2e813f5, 2020-09-07)">
  <metadata
     id="metadata16">
    <rdf:RDF>
      <cc:Work
         rdf:about="">
        <dc:format>image/svg+xml</dc:format>
        <dc:type
           rdf:resource="http://purl.org/dc/dcmitype/StillImage" />
      </cc:Work>
    </rdf:RDF>
  </metadata>
  <sodipodi:namedview
     pagecolor="#ffffff"
     bordercolor="#666666"
     borderopacity="1"
     objecttolerance="10"
     gridtolerance="10"
     guidetolerance="10"
     inkscape:pageopacity="0"
     inkscape:pageshadow="2"
     inkscape:window-width="1920"
     inkscape:window-height="1002"
     id="namedview14"
     showgrid="true"
     inkscape:snap-bbox="true"
     inkscape:bbox-nodes="true"
     inkscape:snap-bbox-edge-midpoints="true"
     inkscape:zoom="18.886364"
     inkscape:cx="-7.6032474"
     inkscape:cy="16.316276"
     inkscape:window-x="0"
     inkscape:window-y="0"
     inkscape:window-maximized="1"
     inkscape:current-layer="svg12">
    <inkscape:grid
       type="xygrid"
       id="grid841" />
  </sodipodi:namedview>
  <defs
     id="defs3">
    <style
       id="current-color-scheme"
       type="text/css">.ColorScheme-Text { color:#363636; } .ColorScheme-Highlight { color:#4285f4; }</style>
  </defs>
  <g
     id="yakuake">
    <path
       id="path5"
       d="M 6 2 C 3.784 2 2 3.784 2 6 L 2 16 C 2 18.216 3.784 20 6 20 L 16 20 C 18.216 20 20 18.216 20 16 L 20 6 C 20 3.784 18.216 2 16 2 L 6 2 z M 6 3 L 16 3 C 17.662 3 19 4.338 19 6 L 19 16 C 19 17.662 17.662 19 16 19 L 6 19 C 4.338 19 3 17.662 3 16 L 3 6 C 3 4.338 4.338 3 6 3 z "
       style="fill:#eaeaea;fill-opacity:1" />
    <path
       class="ColorScheme-Text"
       d="m6.4648 7.4648-0.70703 0.70703 2.8281 2.8281-2.8281 2.8281 0.70703 0.70703 3.5352-3.5352-3.5352-3.5352zm3.5352 6.5352v1h5v-1z"
       fill="currentColor"
       id="path7"
       style="fill:#eaeaea;fill-opacity:1" />
    <rect
       width="22"
       height="22"
       fill="none"
       id="rect9" />
  </g>
</svg>
